<svg width="19" height="18" viewBox="0 0 19 18" fill="none" xmlns="http://www.w3.org/2000/svg">
<path fill-rule="evenodd" clip-rule="evenodd" d="M0.248047 1.50382C0.248047 1.10498 0.406485 0.722481 0.688505 0.44046C0.970526 0.158439 1.35303 2.0048e-06 1.75187 2.0048e-06H16.7426C16.9402 -0.00032081 17.136 0.0383444 17.3187 0.113784C17.5014 0.189223 17.6674 0.299955 17.8072 0.439641C17.9471 0.579326 18.058 0.745221 18.1336 0.927828C18.2093 1.11044 18.2482 1.30617 18.248 1.50382V16.4945C18.2483 16.6922 18.2095 16.888 18.134 17.0707C18.0584 17.2534 17.9476 17.4194 17.8079 17.5593C17.6681 17.6991 17.5022 17.81 17.3195 17.8856C17.1369 17.9612 16.9411 18.0001 16.7434 18H1.75187C1.55431 18 1.35869 17.9611 1.17619 17.8855C0.993685 17.8098 0.827869 17.699 0.688216 17.5593C0.548563 17.4195 0.437809 17.2536 0.362284 17.0711C0.286758 16.8886 0.24794 16.6929 0.248047 16.4954V1.50382ZM7.37277 6.86291H9.81014V8.08691C10.162 7.38327 11.062 6.75 12.4144 6.75C15.0072 6.75 15.6217 8.15155 15.6217 10.7231V15.4865H12.9978V11.3089C12.9978 9.84437 12.646 9.018 11.7525 9.018C10.513 9.018 9.9975 9.909 9.9975 11.3089V15.4865H7.37277V6.86291ZM2.87277 15.3745H5.4975V6.75H2.87277V15.3745ZM5.87305 3.93709C5.878 4.16182 5.83801 4.38528 5.75542 4.59435C5.67284 4.80342 5.54933 4.99389 5.39215 5.15457C5.23496 5.31526 5.04725 5.44293 4.84006 5.5301C4.63286 5.61726 4.41033 5.66216 4.18555 5.66216C3.96076 5.66216 3.73824 5.61726 3.53104 5.5301C3.32384 5.44293 3.13614 5.31526 2.97895 5.15457C2.82176 4.99389 2.69825 4.80342 2.61567 4.59435C2.53309 4.38528 2.4931 4.16182 2.49805 3.93709C2.50776 3.49597 2.68982 3.07619 3.00523 2.76765C3.32064 2.45911 3.74432 2.28634 4.18555 2.28634C4.62677 2.28634 5.05046 2.45911 5.36587 2.76765C5.68128 3.07619 5.86333 3.49597 5.87305 3.93709Z" fill="white"/>
</svg>
