<svg width="22" height="17" viewBox="0 0 22 17" fill="none" xmlns="http://www.w3.org/2000/svg">
<path d="M21.248 2.01651C20.4758 2.35727 19.6462 2.58752 18.774 2.69159C19.6739 2.15539 20.3472 1.31147 20.6682 0.317296C19.8227 0.81738 18.8974 1.16939 17.9324 1.35801C17.2835 0.668066 16.424 0.210762 15.4874 0.057094C14.5507 -0.0965741 13.5893 0.0619913 12.7525 0.508172C11.9156 0.954353 11.25 1.66319 10.8592 2.52462C10.4683 3.38606 10.374 4.35189 10.5908 5.27219C8.87768 5.18653 7.20177 4.74313 5.67185 3.97075C4.14194 3.19837 2.79221 2.11428 1.71026 0.78884C1.34031 1.42432 1.12759 2.16111 1.12759 2.94578C1.12718 3.65217 1.30187 4.34774 1.63616 4.97078C1.97045 5.59382 2.454 6.12505 3.04392 6.51736C2.35977 6.49568 1.69072 6.31159 1.09245 5.98042V6.03568C1.09238 7.02642 1.43653 7.98667 2.0665 8.7535C2.69647 9.52033 3.57347 10.0465 4.54867 10.2427C3.91401 10.4138 3.24862 10.439 2.60276 10.3164C2.8779 11.1689 3.41386 11.9143 4.1356 12.4484C4.85734 12.9825 5.72872 13.2785 6.62777 13.2949C5.10159 14.4879 3.21676 15.1351 1.2765 15.1322C0.9328 15.1323 0.589393 15.1123 0.248047 15.0724C2.21753 16.3334 4.51014 17.0026 6.85159 17C14.7777 17 19.1107 10.4629 19.1107 4.79328C19.1107 4.60908 19.1061 4.42304 19.0977 4.23884C19.9406 3.63189 20.6681 2.8803 21.2462 2.01927L21.248 2.01651Z" fill="white"/>
</svg>
