<svg width="95" height="84" viewBox="0 0 95 84" fill="none" xmlns="http://www.w3.org/2000/svg">
<path d="M23.2427 84C16.1068 84 10.3981 81.4074 6.1165 76.2222C2.03883 70.8296 0 63.8815 0 55.3778C0 43.763 3.05825 33.2889 9.17476 23.9555C15.4951 14.4148 25.0777 6.42962 37.9223 0L41.2864 4.97777C35.1699 8.71111 29.5631 14 24.466 20.8444C19.5728 27.4815 17.1262 34.2222 17.1262 41.0667C17.1262 42.9333 17.6359 44.4889 18.6553 45.7333C19.6748 46.7704 21.2039 47.2889 23.2427 47.2889C28.3398 47.2889 32.6214 49.1556 36.0874 52.8889C39.7573 56.4148 41.5922 60.7704 41.5922 65.9556C41.5922 71.1408 39.7573 75.4963 36.0874 79.0222C32.6214 82.3408 28.3398 84 23.2427 84ZM76.1505 84C69.0146 84 63.3058 81.4074 59.0243 76.2222C54.9466 70.8296 52.9078 63.8815 52.9078 55.3778C52.9078 43.763 55.966 33.2889 62.0825 23.9555C68.4029 14.4148 77.9854 6.42962 90.8301 0L94.1942 4.97777C88.0777 8.71111 82.4709 14 77.3738 20.8444C72.4806 27.4815 70.034 34.2222 70.034 41.0667C70.034 42.9333 70.5437 44.4889 71.5631 45.7333C72.5825 46.7704 74.1116 47.2889 76.1505 47.2889C81.2476 47.2889 85.5291 49.1556 88.9951 52.8889C92.665 56.4148 94.5 60.7704 94.5 65.9556C94.5 71.1408 92.665 75.4963 88.9951 79.0222C85.5291 82.3408 81.2476 84 76.1505 84Z" fill="#E3E3E3"/>
</svg>
